<?xml version="1.0" encoding="UTF-8"?><svg id="Layer_2" xmlns="http://www.w3.org/2000/svg" viewBox="0 0 553.55 523.11"><defs><style>.cls-1{fill:#fff;stroke:#fff;stroke-miterlimit:10;}</style></defs><g id="Layer_1-2"><g><polygon class="cls-1" points="1.3 105.54 45.34 105.54 45.34 65.63 1.3 105.54"/><polygon class="cls-1" points="59.27 56.59 59.27 194.38 146.24 194.38 187.46 153.16 97.67 56.59 59.27 56.59"/><polygon class="cls-1" points="337.86 10.29 166.94 194.38 337.86 194.38 337.86 10.29"/><polygon class="cls-1" points="352.54 .5 352.54 185.35 543.41 .5 352.54 .5"/><polygon class="cls-1" points="474.14 89.35 530.99 34.76 552.45 44.17 474.14 89.35"/><polygon class="cls-1" points="69.44 210.19 333.34 210.19 259.93 411.61 69.44 210.19"/><polygon class="cls-1" points="336.35 522.29 251.65 478.24 336.35 250.48 336.35 522.29"/></g></g></svg>